<svg width="21" height="22" viewBox="0 0 21 22" fill="none" xmlns="http://www.w3.org/2000/svg">
<path d="M18.8765 2.6104C17.8218 1.51517 16.3209 0.947266 14.6172 0.947266H6.26098C2.73188 0.947266 0.37915 3.3 0.37915 6.8291V15.1448C0.37915 16.8891 0.947052 18.3899 2.08285 19.4852C3.17809 20.5399 4.63841 21.0672 6.30155 21.0672H14.5767C16.3209 21.0672 17.7813 20.4993 18.8359 19.4852C19.9312 18.4305 20.4991 16.9296 20.4991 15.1854V6.8291C20.4991 5.1254 19.9312 3.66508 18.8765 2.6104ZM18.7142 15.1854C18.7142 16.4429 18.268 17.457 17.5379 18.1466C16.8077 18.8362 15.7936 19.2012 14.5767 19.2012H6.30155C5.08462 19.2012 4.07051 18.8362 3.34035 18.1466C2.61019 17.4164 2.24511 16.4023 2.24511 15.1448V6.8291C2.24511 5.61217 2.61019 4.59806 3.34035 3.8679C4.02994 3.17831 5.08462 2.81323 6.30155 2.81323H14.6578C15.8747 2.81323 16.8889 3.17831 17.619 3.90846C18.3086 4.63862 18.7142 5.65273 18.7142 6.8291V15.1854Z" fill="black"/>
</svg>
